# xmcd
#
# Track frame offsets:
#	150
#	12899
#	27685
#	38456
#	51583
#	62851
#	73078
#	86998
#	101237
#	115824
#	130112
#	144154
#	156625
#	165150
#	177320
#	190700
#	202164
#	213912
#	226920
#	240798
#	253062
#	266339
#	278187
#	288640
#
# Disc length: 4040 seconds
#
# Revision: 1
# Processed by: cddbd v1.5.1PL2 Copyright (c) Steve Scherf et al.
# Submitted via: audiograbber 1.83.01
#
DISCID=620fc618
DTITLE=Rosco Gordon - No More Doggin
DYEAR=1900
DGENRE=R&B
TTITLE0=Roscoe's Boogie
TTITLE1=City Women
TTITLE2=Ouch! Pretty Baby
TTITLE3=Saddle The Cow
TTITLE4=Dime a Dozen
TTITLE5=A New Remedy for Love
TTITLE6=Booted   (Chess Version)
TTITLE7=Booted    (RPM Version)
TTITLE8=Love You Till the Day I Die
TTITLE9=Cold, Cold Winter
TTITLE10=Two Kinds Of Women
TTITLE11=No More Doggin
TTITLE12=What You Got on Your Mind
TTITLE13=New Orleans Wimmen
TTITLE14=Dream Baby
TTITLE15=Hey Fat Girl
TTITLE16=T-Model Boogie
TTITLE17=Too many Women
TTITLE18=Three Cent Love
TTITLE19=Lucille   (Looking for My Baby)
TTITLE20=Blues for My Baby
TTITLE21=Just In From Texas
TTITLE22=Tomorrow May Be Too Late
TTITLE23=We're all Loaded
EXTD=
EXTT0=
EXTT1=
EXTT2=
EXTT3=
EXTT4=
EXTT5=
EXTT6=
EXTT7=
EXTT8=
EXTT9=
EXTT10=
EXTT11=
EXTT12=
EXTT13=
EXTT14=
EXTT15=
EXTT16=
EXTT17=
EXTT18=
EXTT19=
EXTT20=
EXTT21=
EXTT22=
EXTT23=
PLAYORDER=
